<mxfile host="app.diagrams.net" agent="Mozilla/5.0 (Macintosh; Intel Mac OS X 10_15_7) AppleWebKit/537.36 (KHTML, like Gecko) Chrome/131.0.0.0 Safari/537.36" version="24.9.2">
  <diagram name="Page-1" id="iGuOTDf0Cfx3cbZmZ-3p">
    <mxGraphModel dx="897" dy="547" grid="1" gridSize="10" guides="1" tooltips="1" connect="1" arrows="1" fold="1" page="1" pageScale="1" pageWidth="827" pageHeight="1169" math="0" shadow="0">
      <root>
        <mxCell id="0" />
        <mxCell id="1" parent="0" />
        <mxCell id="xsd8h-yT4-Hcp9SMcOQj-16" value="Gather" style="edgeStyle=orthogonalEdgeStyle;rounded=0;orthogonalLoop=1;jettySize=auto;html=1;exitX=0.5;exitY=1;exitDx=0;exitDy=0;entryX=0;entryY=0.5;entryDx=0;entryDy=0;" edge="1" parent="1" source="xsd8h-yT4-Hcp9SMcOQj-6" target="xsd8h-yT4-Hcp9SMcOQj-10">
          <mxGeometry relative="1" as="geometry" />
        </mxCell>
        <mxCell id="xsd8h-yT4-Hcp9SMcOQj-6" value="0&lt;div&gt;buffer&lt;/div&gt;" style="ellipse;whiteSpace=wrap;html=1;" vertex="1" parent="1">
          <mxGeometry x="240" y="520" width="40" height="60" as="geometry" />
        </mxCell>
        <mxCell id="xsd8h-yT4-Hcp9SMcOQj-17" value="Gather" style="edgeStyle=orthogonalEdgeStyle;rounded=0;orthogonalLoop=1;jettySize=auto;html=1;exitX=0.5;exitY=1;exitDx=0;exitDy=0;entryX=0;entryY=0;entryDx=0;entryDy=0;" edge="1" parent="1" source="xsd8h-yT4-Hcp9SMcOQj-7" target="xsd8h-yT4-Hcp9SMcOQj-10">
          <mxGeometry relative="1" as="geometry" />
        </mxCell>
        <mxCell id="xsd8h-yT4-Hcp9SMcOQj-7" value="1&lt;div&gt;buffer&lt;/div&gt;" style="ellipse;whiteSpace=wrap;html=1;" vertex="1" parent="1">
          <mxGeometry x="320" y="520" width="40" height="60" as="geometry" />
        </mxCell>
        <mxCell id="xsd8h-yT4-Hcp9SMcOQj-18" value="Gather" style="edgeStyle=orthogonalEdgeStyle;rounded=0;orthogonalLoop=1;jettySize=auto;html=1;exitX=0.5;exitY=1;exitDx=0;exitDy=0;entryX=1;entryY=0;entryDx=0;entryDy=0;" edge="1" parent="1" source="xsd8h-yT4-Hcp9SMcOQj-8" target="xsd8h-yT4-Hcp9SMcOQj-10">
          <mxGeometry relative="1" as="geometry" />
        </mxCell>
        <mxCell id="xsd8h-yT4-Hcp9SMcOQj-8" value="2&lt;div&gt;buffer&lt;/div&gt;" style="ellipse;whiteSpace=wrap;html=1;" vertex="1" parent="1">
          <mxGeometry x="400" y="520" width="40" height="60" as="geometry" />
        </mxCell>
        <mxCell id="xsd8h-yT4-Hcp9SMcOQj-19" value="Gather" style="edgeStyle=orthogonalEdgeStyle;rounded=0;orthogonalLoop=1;jettySize=auto;html=1;exitX=0.5;exitY=1;exitDx=0;exitDy=0;entryX=1;entryY=0.5;entryDx=0;entryDy=0;" edge="1" parent="1" source="xsd8h-yT4-Hcp9SMcOQj-9" target="xsd8h-yT4-Hcp9SMcOQj-10">
          <mxGeometry relative="1" as="geometry" />
        </mxCell>
        <mxCell id="xsd8h-yT4-Hcp9SMcOQj-9" value="3&lt;div&gt;buffer&lt;/div&gt;" style="ellipse;whiteSpace=wrap;html=1;" vertex="1" parent="1">
          <mxGeometry x="480" y="520" width="40" height="60" as="geometry" />
        </mxCell>
        <mxCell id="xsd8h-yT4-Hcp9SMcOQj-10" value="1&lt;div&gt;decTotalArray&lt;/div&gt;" style="ellipse;whiteSpace=wrap;html=1;" vertex="1" parent="1">
          <mxGeometry x="330" y="640" width="100" height="60" as="geometry" />
        </mxCell>
      </root>
    </mxGraphModel>
  </diagram>
</mxfile>
